<svg id="Layer_1" data-name="Layer 1" xmlns="http://www.w3.org/2000/svg" viewBox="0 0 300.94 78.22"><defs><style>.cls-1{fill:#13294b;}.cls-2{fill:#ff552e;}</style></defs><path class="cls-1" d="M54.15,21.06V0H0V21.06H12v36.1H0V78.22H54.15V57.16h-12V21.06Zm-12,39.11h9v15H3v-15h9a3,3,0,0,0,3-3V21.06a3,3,0,0,0-3-3H3V3H51.14v15h-9a3,3,0,0,0-3,3v36.1a3,3,0,0,0,3,3"/><path class="cls-2" d="M42.12,18.05h9V3H3v15h9a3,3,0,0,1,3,3v36.1a3,3,0,0,1-3,3H3v15H51.14v-15h-9a3,3,0,0,1-3-3V21.06a3,3,0,0,1,3-3"/><path class="cls-1" d="M96.62,57.6V25.17h7.14V57.6Z"/><path class="cls-1" d="M112.24,57.6V25.17h7.13V51.11h16.17V57.6Z"/><path class="cls-1" d="M140.77,57.6V25.17h7.13V51.11h16.17V57.6Z"/><path class="cls-1" d="M169.46,57.6V25.17h7.13V57.6Z"/><path class="cls-1" d="M207.82,57.6,192.11,37V57.6h-7V25.17h6.58l15.2,20v-20h7V57.6Z"/><path class="cls-1" d="M237.83,58.16c-10,0-17.19-7.46-17.19-16.68v-.1c0-9.22,7.27-16.77,17.28-16.77s17.19,7.46,17.19,16.68v.09C255.11,50.6,247.84,58.16,237.83,58.16Zm9.82-16.78c0-5.56-4.08-10.19-9.82-10.19s-9.73,4.54-9.73,10.1v.09c0,5.56,4.07,10.2,9.82,10.2s9.73-4.54,9.73-10.1Z"/><path class="cls-1" d="M262,57.6V25.17h7.13V57.6Z"/><path class="cls-1" d="M289,58.06a20.64,20.64,0,0,1-13.77-5.19l4.22-5c2.92,2.41,6,3.94,9.68,3.94,2.92,0,4.68-1.16,4.68-3.06v-.09c0-1.81-1.11-2.73-6.53-4.12-6.53-1.67-10.75-3.48-10.75-9.92v-.09c0-5.88,4.73-9.78,11.35-9.78A18.79,18.79,0,0,1,300,28.83l-3.71,5.37c-2.87-2-5.7-3.19-8.43-3.19s-4.17,1.25-4.17,2.82v.09c0,2.14,1.39,2.83,7,4.27,6.58,1.71,10.28,4.07,10.28,9.73V48C300.94,54.45,296,58.06,289,58.06Z"/><path class="cls-1" d="M101,16c-3.4,0-5.48-1.9-5.48-5.63V3.09h2.79v7.16c0,2.06,1,3.13,2.73,3.13s2.73-1,2.73-3V3.09h2.78v7.14C106.56,14.06,104.41,16,101,16Z"/><path class="cls-1" d="M123.43,15.75l-6.13-8v8.05h-2.75V3.09h2.57l5.93,7.79V3.09h2.75V15.75Z"/><path class="cls-1" d="M134,15.75V3.09h2.79V15.75Z"/><path class="cls-1" d="M151.21,15.84h-2.46L143.64,3.09h3.07L150,12l3.31-8.91h3Z"/><path class="cls-1" d="M163.17,15.75V3.09h9.55V5.56h-6.78V8.13h6v2.48h-6v2.66h6.87v2.48Z"/><path class="cls-1" d="M188.14,15.75l-2.72-4.05h-2.18v4.05h-2.79V3.09h5.79c3,0,4.77,1.57,4.77,4.17v0a3.94,3.94,0,0,1-2.71,3.93l3.09,4.52Zm.05-8.34c0-1.19-.83-1.81-2.19-1.81h-2.76V9.24h2.82c1.35,0,2.13-.73,2.13-1.79Z"/><path class="cls-1" d="M203,15.93a8,8,0,0,1-5.37-2l1.64-2A5.81,5.81,0,0,0,203,13.47c1.14,0,1.83-.45,1.83-1.2v0c0-.71-.44-1.07-2.55-1.61-2.55-.65-4.2-1.36-4.2-3.87v0c0-2.3,1.85-3.81,4.43-3.81a7.35,7.35,0,0,1,4.71,1.6l-1.45,2.1a6,6,0,0,0-3.29-1.24c-1.07,0-1.63.48-1.63,1.1v0c0,.84.54,1.11,2.73,1.67,2.57.67,4,1.59,4,3.8v0C207.62,14.52,205.7,15.93,203,15.93Z"/><path class="cls-1" d="M215.13,15.75V3.09h2.79V15.75Z"/><path class="cls-1" d="M231.51,5.65v10.1h-2.78V5.65h-3.85V3.09h10.49V5.65Z"/><path class="cls-1" d="M249.27,10.7v5.05h-2.79v-5l-4.86-7.67h3.25l3,5.08L251,3.09h3.16Z"/><path class="cls-1" d="M276.87,16a6.48,6.48,0,0,1-6.71-6.51v0a6.73,6.73,0,0,1,13.45,0v0A6.54,6.54,0,0,1,276.87,16Zm3.83-6.54a3.85,3.85,0,0,0-3.83-4,3.79,3.79,0,0,0-3.8,3.94v0a3.85,3.85,0,0,0,3.83,4,3.79,3.79,0,0,0,3.8-4Z"/><path class="cls-1" d="M293.86,5.62V8.31h6v2.54h-6v4.9h-2.78V3.09h9.64V5.62Z"/><path class="cls-1" d="M96.6,71.7V67h1.8v4.63c0,1.33.67,2,1.76,2s1.77-.67,1.77-2V67h1.79v4.62c0,2.47-1.39,3.68-3.58,3.68S96.6,74.11,96.6,71.7Z"/><path class="cls-1" d="M110.41,67h3.74a3.29,3.29,0,0,1,2.38.83,2.6,2.6,0,0,1,.7,1.87v0a2.55,2.55,0,0,1-1.75,2.54l2,2.92h-2.1l-1.75-2.62h-1.41v2.62h-1.8ZM114,71c.87,0,1.38-.46,1.38-1.15v0c0-.77-.54-1.16-1.42-1.16h-1.78V71Z"/><path class="cls-1" d="M123.71,67h3.79a3,3,0,0,1,2.14.73,1.88,1.88,0,0,1,.56,1.39v0a1.89,1.89,0,0,1-1.08,1.76,2,2,0,0,1,1.53,2v0c0,1.5-1.21,2.25-3.06,2.25h-3.88Zm4.7,2.42c0-.54-.42-.84-1.18-.84h-1.77v1.73h1.65c.8,0,1.3-.26,1.3-.87Zm-.88,2.38h-2.07v1.8h2.13c.8,0,1.28-.28,1.28-.89v0C128.87,72.17,128.46,71.83,127.53,71.83Z"/><path class="cls-1" d="M139.79,67h1.66l3.5,8.23h-1.88l-.75-1.84h-3.45l-.75,1.84h-1.83Zm1.89,4.81-1.08-2.65-1.09,2.65Z"/><path class="cls-1" d="M151.07,67h1.65l3.83,5V67h1.78v8.18H156.8l-4-5.2v5.2h-1.77Z"/><path class="cls-1" d="M167.94,67h1.66l3.5,8.23h-1.87l-.75-1.84H167l-.74,1.84h-1.84Zm1.9,4.81-1.09-2.65-1.09,2.65Z"/><path class="cls-1" d="M178.59,70.74h3.6v1.7h-3.6Z"/><path class="cls-1" d="M187.78,71.14v0A4.16,4.16,0,0,1,192,66.89a4.21,4.21,0,0,1,3.22,1.27l-1.15,1.31a3,3,0,0,0-2.08-.92,2.42,2.42,0,0,0-2.37,2.55v0A2.42,2.42,0,0,0,192,73.69a2.91,2.91,0,0,0,2.14-1l1.15,1.16A4.18,4.18,0,0,1,192,75.35,4.12,4.12,0,0,1,187.78,71.14Z"/><path class="cls-1" d="M201.61,67h1.8v3.24h3.31V67h1.8v8.18h-1.8V71.93h-3.31v3.28h-1.8Z"/><path class="cls-1" d="M218.14,67h1.65l3.51,8.23h-1.88l-.75-1.84h-3.46l-.74,1.84h-1.84ZM220,71.79l-1.09-2.65-1.08,2.65Z"/><path class="cls-1" d="M229.41,67h1.94l2.15,3.46L235.65,67h1.93v8.18H235.8V69.87l-2.3,3.49h-.05l-2.28-3.45v5.3h-1.76Z"/><path class="cls-1" d="M244.4,67h3.34a2.8,2.8,0,0,1,3.13,2.83v0c0,1.89-1.47,2.87-3.31,2.87H246.2v2.46h-1.8Zm3.22,4.13a1.27,1.27,0,0,0,1.43-1.24v0c0-.8-.56-1.23-1.46-1.23H246.2v2.5Z"/><path class="cls-1" d="M259,67h1.66l3.5,8.23h-1.88l-.75-1.84h-3.45l-.75,1.84h-1.83Zm1.89,4.81-1.09-2.65-1.08,2.65Z"/><path class="cls-1" d="M270.39,67h1.8v8.18h-1.8Z"/><path class="cls-1" d="M278.73,71.14v0A4.2,4.2,0,0,1,283,66.89,4.46,4.46,0,0,1,286.22,68l-1.13,1.36a3,3,0,0,0-2.14-.83,2.46,2.46,0,0,0-2.34,2.55v0a2.45,2.45,0,0,0,2.47,2.59,2.87,2.87,0,0,0,1.7-.49V72.05H283V70.5h3.55v3.55a5.35,5.35,0,0,1-3.5,1.3A4.09,4.09,0,0,1,278.73,71.14Z"/><path class="cls-1" d="M293.1,67h1.66l3.82,5V67h1.78v8.18h-1.53l-4-5.2v5.2H293.1Z"/></svg>