<?xml version="1.0" encoding="utf-8"?>
<!-- Generator: Adobe Illustrator 25.2.1, SVG Export Plug-In . SVG Version: 6.00 Build 0)  -->
<svg version="1.1" id="Layer_1" xmlns="http://www.w3.org/2000/svg" xmlns:xlink="http://www.w3.org/1999/xlink" x="0px" y="0px"
	 viewBox="0 0 339.76 97.58" style="enable-background:new 0 0 339.76 97.58;" xml:space="preserve">
<style type="text/css">
	.st0{fill:#060E30;}
	.st1{fill:#59504F;}
</style>
<g>
	<g>
		<path class="st0" d="M16.26,24.41c0-6.15,4.65-10.35,10.5-10.35c4.56,0,7.11,2.4,8.52,4.89l-3.66,1.8
			c-0.84-1.62-2.64-2.91-4.86-2.91c-3.48,0-6.12,2.79-6.12,6.57c0,3.78,2.64,6.57,6.12,6.57c2.22,0,4.02-1.26,4.86-2.91l3.66,1.77
			c-1.44,2.49-3.96,4.92-8.52,4.92C20.91,34.76,16.26,30.56,16.26,24.41z"/>
		<path class="st0" d="M44.37,19.55c4.32,0,7.26,3.24,7.26,7.98v0.84H40.86c0.24,1.83,1.71,3.36,4.17,3.36
			c1.35,0,2.94-0.54,3.87-1.44l1.68,2.46c-1.47,1.35-3.72,2.01-5.97,2.01c-4.41,0-7.74-2.97-7.74-7.62
			C36.87,22.94,39.96,19.55,44.37,19.55z M40.8,25.79h7.14c-0.09-1.38-1.05-3.21-3.57-3.21C42,22.58,40.98,24.35,40.8,25.79z"/>
		<path class="st0" d="M64.23,25.64c0-2.01-1.05-2.7-2.67-2.7c-1.5,0-2.67,0.84-3.3,1.71v9.75h-3.81V19.91h3.81v1.89
			c0.93-1.11,2.7-2.25,5.07-2.25c3.18,0,4.71,1.8,4.71,4.62V34.4h-3.81V25.64z"/>
		<path class="st0" d="M72.63,30.8v-7.56h-2.4v-3.33h2.4v-3.96h3.84v3.96h2.94v3.33h-2.94v6.54c0,0.9,0.48,1.59,1.32,1.59
			c0.57,0,1.11-0.21,1.32-0.42l0.81,2.88c-0.57,0.51-1.59,0.93-3.18,0.93C74.07,34.76,72.63,33.38,72.63,30.8z"/>
		<path class="st0" d="M88.65,19.55c4.32,0,7.26,3.24,7.26,7.98v0.84H85.14c0.24,1.83,1.71,3.36,4.17,3.36
			c1.35,0,2.94-0.54,3.87-1.44l1.68,2.46c-1.47,1.35-3.72,2.01-5.97,2.01c-4.41,0-7.74-2.97-7.74-7.62
			C81.15,22.94,84.24,19.55,88.65,19.55z M85.08,25.79h7.14c-0.09-1.38-1.05-3.21-3.57-3.21C86.28,22.58,85.26,24.35,85.08,25.79z"
			/>
		<path class="st0" d="M98.73,19.91h3.81v1.98c1.02-1.29,2.82-2.31,4.62-2.31v3.72c-0.27-0.06-0.63-0.09-1.05-0.09
			c-1.26,0-2.94,0.69-3.57,1.62v9.57h-3.81V19.91z"/>
		<path class="st0" d="M118.17,23.24h-2.4v-3.33h2.4v-0.78c0-3.15,2.04-5.04,4.89-5.04c1.08,0,2.07,0.24,2.76,0.6l-0.78,2.7
			c-0.33-0.21-0.78-0.3-1.23-0.3c-1.08,0-1.8,0.72-1.8,2.1v0.72h2.94v3.33h-2.94V34.4h-3.84V23.24z"/>
		<path class="st0" d="M126.27,27.14c0-4.11,2.88-7.59,7.65-7.59c4.8,0,7.68,3.48,7.68,7.59c0,4.14-2.88,7.62-7.68,7.62
			C129.15,34.76,126.27,31.28,126.27,27.14z M137.64,27.14c0-2.25-1.35-4.2-3.72-4.2c-2.37,0-3.69,1.95-3.69,4.2
			c0,2.28,1.32,4.23,3.69,4.23C136.29,31.37,137.64,29.42,137.64,27.14z"/>
		<path class="st0" d="M144.48,19.91h3.81v1.98c1.02-1.29,2.82-2.31,4.62-2.31v3.72c-0.27-0.06-0.63-0.09-1.05-0.09
			c-1.26,0-2.94,0.69-3.57,1.62v9.57h-3.81V19.91z"/>
		<path class="st0" d="M29.97,58.95h-8.94l-1.26,3.45h-4.68l7.74-20.01h5.34l7.71,20.01h-4.65L29.97,58.95z M22.17,55.26h6.63
			l-3.3-9.18L22.17,55.26z"/>
		<path class="st0" d="M38.1,57.84c1.05,0.99,3.21,1.98,5.01,1.98c1.65,0,2.43-0.57,2.43-1.47c0-1.02-1.26-1.38-2.91-1.71
			c-2.49-0.48-5.7-1.08-5.7-4.53c0-2.43,2.13-4.56,5.94-4.56c2.46,0,4.41,0.84,5.82,1.98l-1.5,2.61c-0.87-0.93-2.52-1.68-4.29-1.68
			c-1.38,0-2.28,0.51-2.28,1.35c0,0.9,1.14,1.23,2.76,1.56c2.49,0.48,5.82,1.14,5.82,4.74c0,2.67-2.25,4.65-6.27,4.65
			c-2.52,0-4.95-0.84-6.48-2.25L38.1,57.84z"/>
		<path class="st0" d="M52.83,58.8v-7.56h-2.4v-3.33h2.4v-3.96h3.84v3.96h2.94v3.33h-2.94v6.54c0,0.9,0.48,1.59,1.32,1.59
			c0.57,0,1.11-0.21,1.32-0.42l0.81,2.88c-0.57,0.51-1.59,0.93-3.18,0.93C54.27,62.76,52.83,61.38,52.83,58.8z"/>
		<path class="st0" d="M62.28,47.91h3.81v1.98c1.02-1.29,2.82-2.31,4.62-2.31v3.72c-0.27-0.06-0.63-0.09-1.05-0.09
			c-1.26,0-2.94,0.69-3.57,1.62v9.57h-3.81V47.91z"/>
		<path class="st0" d="M72.21,55.14c0-4.11,2.88-7.59,7.65-7.59c4.8,0,7.68,3.48,7.68,7.59c0,4.14-2.88,7.62-7.68,7.62
			C75.09,62.76,72.21,59.28,72.21,55.14z M83.58,55.14c0-2.25-1.35-4.2-3.72-4.2c-2.37,0-3.69,1.95-3.69,4.2
			c0,2.28,1.32,4.23,3.69,4.23C82.23,59.37,83.58,57.42,83.58,55.14z"/>
		<path class="st0" d="M90.51,42.39h9.36c4.35,0,6.72,2.94,6.72,6.45c0,3.48-2.4,6.39-6.72,6.39h-5.1v7.17h-4.26V42.39z M99.3,46.05
			h-4.53v5.52h4.53c1.68,0,2.94-1.08,2.94-2.76C102.24,47.16,100.98,46.05,99.3,46.05z"/>
		<path class="st0" d="M119.01,53.58c0-2.01-1.05-2.64-2.7-2.64c-1.47,0-2.64,0.84-3.3,1.71v9.75h-3.81V42.39h3.81v7.41
			c0.93-1.11,2.73-2.25,5.1-2.25c3.18,0,4.71,1.74,4.71,4.56V62.4h-3.81V53.58z"/>
		<path class="st0" d="M127.92,64.89c0.99,0,1.65-0.27,2.01-1.05l0.54-1.23l-5.88-14.7h4.08l3.78,10.08l3.78-10.08h4.11l-6.81,16.86
			c-1.08,2.73-3,3.45-5.49,3.51c-0.45,0-1.41-0.09-1.89-0.21l0.57-3.42C127.05,64.8,127.56,64.89,127.92,64.89z"/>
		<path class="st0" d="M142.5,57.84c1.05,0.99,3.21,1.98,5.01,1.98c1.65,0,2.43-0.57,2.43-1.47c0-1.02-1.26-1.38-2.91-1.71
			c-2.49-0.48-5.7-1.08-5.7-4.53c0-2.43,2.13-4.56,5.94-4.56c2.46,0,4.41,0.84,5.82,1.98l-1.5,2.61c-0.87-0.93-2.52-1.68-4.29-1.68
			c-1.38,0-2.28,0.51-2.28,1.35c0,0.9,1.14,1.23,2.76,1.56c2.49,0.48,5.82,1.14,5.82,4.74c0,2.67-2.25,4.65-6.27,4.65
			c-2.52,0-4.95-0.84-6.48-2.25L142.5,57.84z"/>
		<path class="st0" d="M156.09,43.5c0-1.26,1.05-2.28,2.28-2.28c1.26,0,2.28,1.02,2.28,2.28c0,1.26-1.02,2.28-2.28,2.28
			C157.14,45.78,156.09,44.76,156.09,43.5z M156.48,47.91h3.81V62.4h-3.81V47.91z"/>
		<path class="st0" d="M170.88,47.55c2.97,0,4.77,1.29,5.73,2.64l-2.49,2.31c-0.69-0.99-1.74-1.56-3.06-1.56
			c-2.31,0-3.93,1.68-3.93,4.2s1.62,4.23,3.93,4.23c1.32,0,2.37-0.6,3.06-1.56l2.49,2.31c-0.96,1.35-2.76,2.64-5.73,2.64
			c-4.47,0-7.68-3.15-7.68-7.62C163.2,50.7,166.41,47.55,170.88,47.55z"/>
		<path class="st0" d="M187.86,60.9c-0.99,1.17-2.7,1.86-4.59,1.86c-2.31,0-5.04-1.56-5.04-4.8c0-3.39,2.73-4.62,5.04-4.62
			c1.92,0,3.63,0.6,4.59,1.77V53.1c0-1.47-1.26-2.43-3.18-2.43c-1.56,0-3,0.57-4.23,1.71l-1.44-2.55c1.77-1.56,4.05-2.28,6.33-2.28
			c3.3,0,6.33,1.32,6.33,5.49v9.36h-3.81V60.9z M187.86,57.12c-0.63-0.84-1.83-1.26-3.06-1.26c-1.5,0-2.73,0.81-2.73,2.19
			c0,1.35,1.23,2.13,2.73,2.13c1.23,0,2.43-0.42,3.06-1.26V57.12z"/>
		<path class="st0" d="M195.51,42.39h3.81V62.4h-3.81V42.39z"/>
		<path class="st0" d="M211.95,56.34c1.41,1.47,3.6,2.7,6.36,2.7c2.34,0,3.48-1.11,3.48-2.25c0-1.5-1.74-2.01-4.05-2.55
			c-3.27-0.75-7.47-1.65-7.47-6.12c0-3.33,2.88-6.03,7.59-6.03c3.18,0,5.82,0.96,7.8,2.79L223.29,48c-1.62-1.5-3.78-2.19-5.73-2.19
			c-1.92,0-2.94,0.84-2.94,2.04c0,1.35,1.68,1.77,3.99,2.31c3.3,0.75,7.5,1.74,7.5,6.18c0,3.66-2.61,6.42-8.01,6.42
			c-3.84,0-6.6-1.29-8.49-3.18L211.95,56.34z"/>
		<path class="st0" d="M238.74,60.57c-0.99,1.11-2.73,2.19-5.1,2.19c-3.18,0-4.68-1.74-4.68-4.56V47.91h3.81v8.79
			c0,2.01,1.05,2.67,2.67,2.67c1.47,0,2.64-0.81,3.3-1.65v-9.81h3.81V62.4h-3.81V60.57z"/>
		<path class="st0" d="M246.39,47.91h3.81v1.98c1.02-1.29,2.82-2.31,4.62-2.31v3.72c-0.27-0.06-0.63-0.09-1.05-0.09
			c-1.26,0-2.94,0.69-3.57,1.62v9.57h-3.81V47.91z"/>
		<path class="st0" d="M255.18,47.91h4.08l3.78,10.08l3.78-10.08h4.11l-5.82,14.49H261L255.18,47.91z"/>
		<path class="st0" d="M279.27,47.55c4.32,0,7.26,3.24,7.26,7.98v0.84h-10.77c0.24,1.83,1.71,3.36,4.17,3.36
			c1.35,0,2.94-0.54,3.87-1.44l1.68,2.46c-1.47,1.35-3.72,2.01-5.97,2.01c-4.41,0-7.74-2.97-7.74-7.62
			C271.77,50.94,274.86,47.55,279.27,47.55z M275.7,53.79h7.14c-0.09-1.38-1.05-3.21-3.57-3.21
			C276.9,50.58,275.88,52.35,275.7,53.79z"/>
		<path class="st0" d="M290.61,64.89c0.99,0,1.65-0.27,2.01-1.05l0.54-1.23l-5.88-14.7h4.08l3.78,10.08l3.78-10.08h4.11l-6.81,16.86
			c-1.08,2.73-3,3.45-5.49,3.51c-0.45,0-1.41-0.09-1.89-0.21l0.57-3.42C289.74,64.8,290.25,64.89,290.61,64.89z"/>
		<path class="st0" d="M305.19,57.84c1.05,0.99,3.21,1.98,5.01,1.98c1.65,0,2.43-0.57,2.43-1.47c0-1.02-1.26-1.38-2.91-1.71
			c-2.49-0.48-5.7-1.08-5.7-4.53c0-2.43,2.13-4.56,5.94-4.56c2.46,0,4.41,0.84,5.82,1.98l-1.5,2.61c-0.87-0.93-2.52-1.68-4.29-1.68
			c-1.38,0-2.28,0.51-2.28,1.35c0,0.9,1.14,1.23,2.76,1.56c2.49,0.48,5.82,1.14,5.82,4.74c0,2.67-2.25,4.65-6.27,4.65
			c-2.52,0-4.95-0.84-6.48-2.25L305.19,57.84z"/>
	</g>
	<g>
		<path class="st1" d="M17.02,78.58v4.74h-1.14v-6.5h1.17l3.32,4.61v-4.61h1.14v6.5h-1.1L17.02,78.58z"/>
		<path class="st1" d="M27.19,82.07h-3.08l-0.48,1.25h-1.25l2.55-6.5h1.42l2.55,6.5h-1.25L27.19,82.07z M24.43,81.07h2.44
			l-1.22-3.29L24.43,81.07z"/>
		<path class="st1" d="M30.71,77.82h-1.97v-1h5.08v1h-1.97v5.5h-1.14V77.82z"/>
		<path class="st1" d="M34.95,76.82h1.14v6.5h-1.14V76.82z"/>
		<path class="st1" d="M40.67,76.71c1.95,0,3.32,1.42,3.32,3.36c0,1.94-1.37,3.36-3.32,3.36s-3.32-1.42-3.32-3.36
			C37.35,78.13,38.72,76.71,40.67,76.71z M40.67,77.72c-1.32,0-2.15,1-2.15,2.35c0,1.34,0.84,2.35,2.15,2.35
			c1.31,0,2.15-1.01,2.15-2.35C42.83,78.73,41.98,77.72,40.67,77.72z"/>
		<path class="st1" d="M46.4,78.58v4.74h-1.14v-6.5h1.17l3.32,4.61v-4.61h1.14v6.5h-1.1L46.4,78.58z"/>
		<path class="st1" d="M56.57,82.07h-3.08l-0.48,1.25h-1.25l2.55-6.5h1.42l2.55,6.5h-1.25L56.57,82.07z M53.81,81.07h2.44
			l-1.22-3.29L53.81,81.07z"/>
		<path class="st1" d="M59.18,76.82h1.14v5.5h2.87v1h-4.01V76.82z"/>
		<path class="st1" d="M66.76,80.07c0-2,1.49-3.36,3.36-3.36c1.37,0,2.17,0.68,2.66,1.46l-0.97,0.5c-0.31-0.54-0.94-0.95-1.69-0.95
			c-1.24,0-2.19,0.99-2.19,2.35c0,1.37,0.96,2.35,2.19,2.35c0.75,0,1.38-0.4,1.69-0.95l0.97,0.5c-0.5,0.78-1.3,1.46-2.66,1.46
			C68.25,83.44,66.76,82.07,66.76,80.07z"/>
		<path class="st1" d="M73.87,76.82h4.46v1h-3.31v1.69h3.25v1h-3.25v1.8h3.31v1h-4.46V76.82z"/>
		<path class="st1" d="M80.8,78.58v4.74h-1.14v-6.5h1.17l3.32,4.61v-4.61h1.14v6.5h-1.1L80.8,78.58z"/>
		<path class="st1" d="M88.4,77.82h-1.97v-1h5.08v1h-1.97v5.5H88.4V77.82z"/>
		<path class="st1" d="M92.64,76.82h4.46v1h-3.32v1.69h3.25v1h-3.25v1.8h3.32v1h-4.46V76.82z"/>
		<path class="st1" d="M100.7,80.89h-1.13v2.43h-1.14v-6.5h2.86c1.29,0,2.13,0.84,2.13,2.04c0,1.16-0.76,1.79-1.54,1.91l1.59,2.55
			h-1.32L100.7,80.89z M101.13,77.82h-1.56v2.07h1.56c0.64,0,1.11-0.41,1.11-1.03S101.77,77.82,101.13,77.82z"/>
		<path class="st1" d="M107.39,76.82h4.46v1h-3.31v1.69h3.25v1h-3.25v2.81h-1.14V76.82z"/>
		<path class="st1" d="M116.07,76.71c1.95,0,3.32,1.42,3.32,3.36c0,1.94-1.37,3.36-3.32,3.36s-3.32-1.42-3.32-3.36
			C112.74,78.13,114.12,76.71,116.07,76.71z M116.07,77.72c-1.32,0-2.15,1-2.15,2.35c0,1.34,0.84,2.35,2.15,2.35
			c1.31,0,2.15-1.01,2.15-2.35C118.22,78.73,117.37,77.72,116.07,77.72z"/>
		<path class="st1" d="M122.93,80.89h-1.13v2.43h-1.14v-6.5h2.86c1.29,0,2.13,0.84,2.13,2.04c0,1.16-0.76,1.79-1.54,1.91l1.59,2.55
			h-1.32L122.93,80.89z M123.36,77.82h-1.56v2.07h1.56c0.64,0,1.11-0.41,1.11-1.03S124,77.82,123.36,77.82z"/>
		<path class="st1" d="M129.83,81.52c0.45,0.48,1.15,0.9,2.06,0.9c0.94,0,1.31-0.46,1.31-0.89c0-0.58-0.69-0.76-1.48-0.96
			c-1.06-0.26-2.31-0.58-2.31-1.95c0-1.07,0.95-1.9,2.37-1.9c1.01,0,1.83,0.32,2.44,0.91l-0.65,0.85c-0.51-0.51-1.2-0.74-1.88-0.74
			c-0.67,0-1.1,0.32-1.1,0.81c0,0.51,0.66,0.67,1.43,0.87c1.07,0.27,2.35,0.6,2.35,2.02c0,1.08-0.76,2.01-2.52,2.01
			c-1.2,0-2.07-0.42-2.64-1.03L129.83,81.52z"/>
		<path class="st1" d="M135.58,76.82h1.15v3.9c0,1.03,0.58,1.71,1.67,1.71c1.08,0,1.66-0.67,1.66-1.71v-3.9h1.15v3.93
			c0,1.62-0.93,2.69-2.81,2.69c-1.89,0-2.82-1.08-2.82-2.68V76.82z"/>
		<path class="st1" d="M142.75,76.82h2.86c1.36,0,2.13,0.94,2.13,2.04c0,1.1-0.77,2.04-2.13,2.04h-1.72v2.43h-1.14V76.82z
			 M145.45,77.82h-1.56v2.07h1.56c0.64,0,1.11-0.41,1.11-1.03S146.1,77.82,145.45,77.82z"/>
		<path class="st1" d="M148.85,76.82h4.46v1h-3.31v1.69h3.25v1h-3.25v1.8h3.31v1h-4.46V76.82z"/>
		<path class="st1" d="M156.91,80.89h-1.13v2.43h-1.14v-6.5h2.86c1.29,0,2.13,0.84,2.13,2.04c0,1.16-0.76,1.79-1.54,1.91l1.59,2.55
			h-1.32L156.91,80.89z M157.34,77.82h-1.56v2.07h1.56c0.64,0,1.11-0.41,1.11-1.03S157.98,77.82,157.34,77.82z"/>
		<path class="st1" d="M160.63,80.07c0-2,1.49-3.36,3.36-3.36c1.37,0,2.17,0.68,2.66,1.46l-0.97,0.5c-0.31-0.54-0.94-0.95-1.69-0.95
			c-1.24,0-2.19,0.99-2.19,2.35c0,1.37,0.96,2.35,2.19,2.35c0.75,0,1.38-0.4,1.69-0.95l0.97,0.5c-0.5,0.78-1.3,1.46-2.66,1.46
			C162.13,83.44,160.63,82.07,160.63,80.07z"/>
		<path class="st1" d="M170.77,76.71c1.95,0,3.32,1.42,3.32,3.36c0,1.94-1.37,3.36-3.32,3.36s-3.32-1.42-3.32-3.36
			C167.45,78.13,168.82,76.71,170.77,76.71z M170.77,77.72c-1.32,0-2.15,1-2.15,2.35c0,1.34,0.84,2.35,2.15,2.35
			c1.31,0,2.15-1.01,2.15-2.35C172.93,78.73,172.08,77.72,170.77,77.72z"/>
		<path class="st1" d="M180.98,78.39l-2,4.92h-0.49l-1.99-4.92v4.92h-1.14v-6.5h1.61l1.76,4.38l1.77-4.38h1.61v6.5h-1.14V78.39z"/>
		<path class="st1" d="M183.67,76.82h2.86c1.37,0,2.13,0.94,2.13,2.04c0,1.1-0.77,2.04-2.13,2.04h-1.72v2.43h-1.14V76.82z
			 M186.37,77.82h-1.56v2.07h1.56c0.64,0,1.11-0.41,1.11-1.03S187.02,77.82,186.37,77.82z"/>
		<path class="st1" d="M189.77,76.82h1.15v3.9c0,1.03,0.58,1.71,1.67,1.71c1.08,0,1.66-0.67,1.66-1.71v-3.9h1.15v3.93
			c0,1.62-0.93,2.69-2.81,2.69c-1.89,0-2.82-1.08-2.82-2.68V76.82z"/>
		<path class="st1" d="M198.49,77.82h-1.97v-1h5.08v1h-1.97v5.5h-1.14V77.82z"/>
		<path class="st1" d="M202.73,76.82h1.14v6.5h-1.14V76.82z"/>
		<path class="st1" d="M206.56,78.58v4.74h-1.14v-6.5h1.17l3.33,4.61v-4.61h1.14v6.5h-1.1L206.56,78.58z"/>
		<path class="st1" d="M215.73,76.71c1.27,0,2.1,0.6,2.62,1.36l-0.94,0.53c-0.34-0.49-0.96-0.87-1.69-0.87
			c-1.29,0-2.24,0.99-2.24,2.35c0,1.37,0.96,2.36,2.24,2.36c0.66,0,1.25-0.31,1.54-0.58v-1.01h-1.94v-1h3.08v2.44
			c-0.64,0.71-1.55,1.18-2.68,1.18c-1.88,0-3.41-1.34-3.41-3.37C212.32,78.03,213.85,76.71,215.73,76.71z"/>
		<path class="st1" d="M226.56,82.07h-3.08L223,83.32h-1.25l2.55-6.5h1.42l2.55,6.5h-1.25L226.56,82.07z M223.8,81.07h2.44
			l-1.22-3.29L223.8,81.07z"/>
		<path class="st1" d="M229.16,76.82h2.86c1.37,0,2.13,0.94,2.13,2.04c0,1.1-0.77,2.04-2.13,2.04h-1.72v2.43h-1.14V76.82z
			 M231.87,77.82h-1.56v2.07h1.56c0.64,0,1.11-0.41,1.11-1.03S232.51,77.82,231.87,77.82z"/>
		<path class="st1" d="M235.26,76.82h2.86c1.37,0,2.13,0.94,2.13,2.04c0,1.1-0.77,2.04-2.13,2.04h-1.72v2.43h-1.14V76.82z
			 M237.96,77.82h-1.56v2.07h1.56c0.64,0,1.11-0.41,1.11-1.03S238.6,77.82,237.96,77.82z"/>
		<path class="st1" d="M241.35,76.82h1.14v5.5h2.87v1h-4.01V76.82z"/>
		<path class="st1" d="M246.56,76.82h1.14v6.5h-1.14V76.82z"/>
		<path class="st1" d="M248.96,80.07c0-2,1.49-3.36,3.36-3.36c1.37,0,2.17,0.68,2.66,1.46l-0.98,0.5c-0.31-0.54-0.94-0.95-1.69-0.95
			c-1.24,0-2.19,0.99-2.19,2.35c0,1.37,0.96,2.35,2.19,2.35c0.75,0,1.38-0.4,1.69-0.95l0.98,0.5c-0.5,0.78-1.3,1.46-2.66,1.46
			C250.45,83.44,248.96,82.07,248.96,80.07z"/>
		<path class="st1" d="M260.14,82.07h-3.08l-0.48,1.25h-1.25l2.55-6.5h1.42l2.55,6.5h-1.25L260.14,82.07z M257.38,81.07h2.44
			l-1.22-3.29L257.38,81.07z"/>
		<path class="st1" d="M263.66,77.82h-1.97v-1h5.08v1h-1.97v5.5h-1.14V77.82z"/>
		<path class="st1" d="M267.9,76.82h1.14v6.5h-1.14V76.82z"/>
		<path class="st1" d="M273.63,76.71c1.95,0,3.33,1.42,3.33,3.36c0,1.94-1.38,3.36-3.33,3.36s-3.33-1.42-3.33-3.36
			C270.3,78.13,271.68,76.71,273.63,76.71z M273.63,77.72c-1.32,0-2.16,1-2.16,2.35c0,1.34,0.84,2.35,2.16,2.35
			c1.31,0,2.16-1.01,2.16-2.35C275.78,78.73,274.93,77.72,273.63,77.72z"/>
		<path class="st1" d="M279.36,78.58v4.74h-1.14v-6.5h1.17l3.33,4.61v-4.61h1.14v6.5h-1.1L279.36,78.58z"/>
		<path class="st1" d="M285.62,81.52c0.45,0.48,1.15,0.9,2.06,0.9c0.94,0,1.31-0.46,1.31-0.89c0-0.58-0.69-0.76-1.48-0.96
			c-1.06-0.26-2.31-0.58-2.31-1.95c0-1.07,0.95-1.9,2.37-1.9c1.01,0,1.83,0.32,2.44,0.91l-0.65,0.85c-0.51-0.51-1.2-0.74-1.88-0.74
			c-0.67,0-1.1,0.32-1.1,0.81c0,0.51,0.66,0.67,1.43,0.87c1.07,0.27,2.35,0.6,2.35,2.02c0,1.08-0.76,2.01-2.52,2.01
			c-1.2,0-2.07-0.42-2.64-1.03L285.62,81.52z"/>
		<path class="st1" d="M294.03,76.62h0.7v6.89h-0.7V76.62z"/>
		<path class="st1" d="M300.09,78.58v4.74h-1.14v-6.5h1.17l3.33,4.61v-4.61h1.14v6.5h-1.1L300.09,78.58z"/>
		<path class="st1" d="M305.85,80.07c0-2,1.49-3.36,3.36-3.36c1.37,0,2.17,0.68,2.66,1.46l-0.98,0.5c-0.31-0.54-0.94-0.95-1.69-0.95
			c-1.24,0-2.19,0.99-2.19,2.35c0,1.37,0.96,2.35,2.19,2.35c0.75,0,1.38-0.4,1.69-0.95l0.98,0.5c-0.5,0.78-1.3,1.46-2.66,1.46
			C307.34,83.44,305.85,82.07,305.85,80.07z"/>
		<path class="st1" d="M313.17,81.52c0.45,0.48,1.15,0.9,2.06,0.9c0.94,0,1.31-0.46,1.31-0.89c0-0.58-0.69-0.76-1.48-0.96
			c-1.06-0.26-2.31-0.58-2.31-1.95c0-1.07,0.95-1.9,2.37-1.9c1.01,0,1.83,0.32,2.44,0.91l-0.65,0.85c-0.51-0.51-1.2-0.74-1.88-0.74
			c-0.67,0-1.1,0.32-1.1,0.81c0,0.51,0.66,0.67,1.43,0.87c1.07,0.27,2.35,0.6,2.35,2.02c0,1.08-0.76,2.01-2.52,2.01
			c-1.2,0-2.07-0.42-2.64-1.03L313.17,81.52z"/>
		<path class="st1" d="M322.94,82.07h-3.08l-0.48,1.25h-1.25l2.55-6.5h1.42l2.55,6.5h-1.25L322.94,82.07z M320.18,81.07h2.44
			l-1.22-3.29L320.18,81.07z"/>
	</g>
</g>
</svg>
